<svg width="9" height="9" viewBox="0 0 9 9" fill="none" xmlns="http://www.w3.org/2000/svg">
<g clip-path="url(#clip0_2384_454)">
<path d="M0.972412 1.62519C0.972412 1.55884 0.998772 1.4952 1.04569 1.44828C1.09261 1.40136 1.15625 1.375 1.22261 1.375H1.40875C1.72567 1.375 1.91581 1.58817 2.02423 1.78632C2.09662 1.91842 2.14899 2.07154 2.19003 2.21032C2.20112 2.20944 2.21225 2.209 2.22339 2.20898H6.39263C6.66951 2.20898 6.86967 2.47385 6.79361 2.7404L6.1838 4.87839C6.12913 5.07016 6.01346 5.23889 5.85431 5.35904C5.69516 5.47918 5.50119 5.5442 5.30178 5.54424H3.31757C3.11658 5.54425 2.92115 5.47825 2.76131 5.35639C2.60148 5.23452 2.48609 5.06354 2.43288 4.86972L2.17935 3.945L1.75902 2.5279L1.75869 2.52523C1.70665 2.33608 1.65795 2.15894 1.58522 2.02684C1.5155 1.89841 1.45946 1.87539 1.40909 1.87539H1.22261C1.15625 1.87539 1.09261 1.84903 1.04569 1.80211C0.998772 1.75519 0.972412 1.69155 0.972412 1.62519ZM2.66473 3.82357L2.91526 4.73728C2.9653 4.91809 3.12976 5.04385 3.31757 5.04385H5.30178C5.39242 5.04385 5.48059 5.01432 5.55294 4.95972C5.6253 4.90513 5.67789 4.82844 5.70276 4.74128L6.28221 2.70937H2.33514L2.66006 3.80589L2.66473 3.82357ZM3.80795 6.54569C3.80795 6.72264 3.73766 6.89234 3.61254 7.01746C3.48742 7.14258 3.31771 7.21287 3.14077 7.21287C2.96382 7.21287 2.79412 7.14258 2.66899 7.01746C2.54387 6.89234 2.47358 6.72264 2.47358 6.54569C2.47358 6.36874 2.54387 6.19904 2.66899 6.07392C2.79412 5.9488 2.96382 5.8785 3.14077 5.8785C3.31771 5.8785 3.48742 5.9488 3.61254 6.07392C3.73766 6.19904 3.80795 6.36874 3.80795 6.54569ZM3.30756 6.54569C3.30756 6.50145 3.28999 6.45903 3.25871 6.42775C3.22743 6.39646 3.185 6.37889 3.14077 6.37889C3.09653 6.37889 3.0541 6.39646 3.02282 6.42775C2.99154 6.45903 2.97397 6.50145 2.97397 6.54569C2.97397 6.58993 2.99154 6.63235 3.02282 6.66363C3.0541 6.69491 3.09653 6.71248 3.14077 6.71248C3.185 6.71248 3.22743 6.69491 3.25871 6.66363C3.28999 6.63235 3.30756 6.58993 3.30756 6.54569ZM6.1431 6.54569C6.1431 6.72264 6.07281 6.89234 5.94769 7.01746C5.82257 7.14258 5.65287 7.21287 5.47592 7.21287C5.29897 7.21287 5.12927 7.14258 5.00415 7.01746C4.87902 6.89234 4.80873 6.72264 4.80873 6.54569C4.80873 6.36874 4.87902 6.19904 5.00415 6.07392C5.12927 5.9488 5.29897 5.8785 5.47592 5.8785C5.65287 5.8785 5.82257 5.9488 5.94769 6.07392C6.07281 6.19904 6.1431 6.36874 6.1431 6.54569ZM5.64271 6.54569C5.64271 6.50145 5.62514 6.45903 5.59386 6.42775C5.56258 6.39646 5.52015 6.37889 5.47592 6.37889C5.43168 6.37889 5.38925 6.39646 5.35797 6.42775C5.32669 6.45903 5.30912 6.50145 5.30912 6.54569C5.30912 6.58993 5.32669 6.63235 5.35797 6.66363C5.38925 6.69491 5.43168 6.71248 5.47592 6.71248C5.52015 6.71248 5.56258 6.69491 5.59386 6.66363C5.62514 6.63235 5.64271 6.58993 5.64271 6.54569Z" fill="#32CD32"/>
</g>
<defs>
<clipPath id="clip0_2384_454">
<rect width="8.00623" height="8.00623" fill="white" transform="translate(0.125732 0.183594)"/>
</clipPath>
</defs>
</svg>
