<svg width="114" height="20" viewBox="0 0 114 20" fill="none" xmlns="http://www.w3.org/2000/svg">
<path d="M12.3358 1.66571V15.8203H10.3137V9.5114H2.18495V15.8203H0.162863V1.66571H2.18495V7.75219H10.3137V1.66571H12.3358ZM25.9753 10.5224C25.9753 10.6707 25.9618 10.8662 25.9348 11.1089H17.2399C17.3612 12.0525 17.7723 12.8141 18.4733 13.3938C19.1878 13.96 20.0708 14.2431 21.1223 14.2431C22.4029 14.2431 23.4342 13.8117 24.2161 12.949L25.2878 14.2026C24.8025 14.7688 24.1958 15.2002 23.4679 15.4968C22.7534 15.7934 21.9513 15.9416 21.0616 15.9416C19.9292 15.9416 18.9249 15.7125 18.0487 15.2541C17.1725 14.7823 16.4917 14.1285 16.0064 13.2927C15.5346 12.4569 15.2987 11.5133 15.2987 10.4618C15.2987 9.42378 15.5278 8.48688 15.9862 7.65108C16.458 6.81529 17.0983 6.16822 17.9071 5.70988C18.7295 5.23806 19.6529 5.00215 20.6774 5.00215C21.7019 5.00215 22.6119 5.23806 23.4072 5.70988C24.2161 6.16822 24.8429 6.81529 25.2878 7.65108C25.7461 8.48688 25.9753 9.444 25.9753 10.5224ZM20.6774 6.64004C19.7472 6.64004 18.9654 6.92313 18.3318 7.48932C17.7117 8.0555 17.3477 8.79693 17.2399 9.71361H24.1149C24.0071 8.81041 23.6364 8.07572 23.0028 7.50954C22.3827 6.92987 21.6076 6.64004 20.6774 6.64004ZM32.2772 5.00215C33.7601 5.00215 34.8925 5.36613 35.6743 6.09408C36.4697 6.82203 36.8674 7.90722 36.8674 9.34964V15.8203H35.0273V14.4049C34.7037 14.9036 34.2386 15.2878 33.632 15.5574C33.0389 15.8136 32.3311 15.9416 31.5088 15.9416C30.3091 15.9416 29.3452 15.6518 28.6172 15.0721C27.9028 14.4925 27.5455 13.7308 27.5455 12.7872C27.5455 11.8435 27.8893 11.0886 28.5768 10.5224C29.2643 9.94278 30.3562 9.65295 31.8526 9.65295H34.9262V9.26875C34.9262 8.43296 34.6835 7.79263 34.1982 7.34777C33.7129 6.90291 32.9984 6.68048 32.0548 6.68048C31.4212 6.68048 30.8011 6.78833 30.1945 7.00402C29.5879 7.20622 29.0756 7.48258 28.6577 7.83307L27.8489 6.37717C28.4016 5.93231 29.0621 5.5953 29.8305 5.36613C30.5989 5.12348 31.4145 5.00215 32.2772 5.00215ZM31.8324 14.4453C32.5738 14.4453 33.2141 14.2835 33.7533 13.96C34.2926 13.623 34.6835 13.1512 34.9262 12.5445V11.0482H31.9335C30.2888 11.0482 29.4665 11.6009 29.4665 12.7063C29.4665 13.2455 29.6755 13.6702 30.0934 13.9802C30.5113 14.2903 31.0909 14.4453 31.8324 14.4453ZM40.4597 0.816432H42.4009V15.8203H40.4597V0.816432ZM51.8298 5.00215C53.1914 5.00215 54.2698 5.39983 55.0652 6.19518C55.874 6.97706 56.2784 8.12964 56.2784 9.65295V15.8203H54.3372V9.87538C54.3372 8.83737 54.0878 8.0555 53.5891 7.52976C53.0903 7.00402 52.3758 6.74115 51.4457 6.74115C50.3942 6.74115 49.5651 7.0512 48.9585 7.6713C48.3519 8.27793 48.0485 9.15417 48.0485 10.3V15.8203H46.1073V0.816432H48.0485V6.61982C48.453 6.10756 48.9787 5.70988 49.6258 5.42679C50.2863 5.1437 51.021 5.00215 51.8298 5.00215ZM69.1571 5.10326L63.9603 16.892C63.502 17.9839 62.9627 18.7523 62.3426 19.1972C61.736 19.6421 61.0013 19.8645 60.1386 19.8645C59.6128 19.8645 59.1006 19.7769 58.6018 19.6016C58.1165 19.4398 57.7121 19.1972 57.3885 18.8737L58.2176 17.4178C58.7703 17.9435 59.4106 18.2064 60.1386 18.2064C60.6104 18.2064 61.0013 18.0783 61.3114 17.8222C61.6349 17.5795 61.9247 17.1549 62.1809 16.5483L62.5246 15.8001L57.7929 5.10326H59.815L63.5559 13.6769L67.2563 5.10326H69.1571ZM74.8916 2.29256C73.7323 2.29256 73.1526 2.9194 73.1526 4.1731V5.10326H76.2666V6.7007H73.193V15.8203H71.2518V6.7007H69.432V5.10326H71.2518V4.15288C71.2518 3.08791 71.5619 2.24537 72.182 1.62527C72.8021 1.00516 73.6716 0.695108 74.7905 0.695108C75.2219 0.695108 75.6263 0.74903 76.0037 0.856875C76.3812 0.964719 76.7047 1.11975 76.9743 1.32195L76.3879 2.79808C75.9431 2.46106 75.4443 2.29256 74.8916 2.29256ZM82.5295 15.9416C81.4646 15.9416 80.5075 15.7057 79.6582 15.2339C78.8089 14.7621 78.1416 14.115 77.6563 13.2927C77.1845 12.4569 76.9486 11.5133 76.9486 10.4618C76.9486 9.4103 77.1845 8.4734 77.6563 7.65108C78.1416 6.81529 78.8089 6.16822 79.6582 5.70988C80.5075 5.23806 81.4646 5.00215 82.5295 5.00215C83.5945 5.00215 84.5449 5.23806 85.3807 5.70988C86.23 6.16822 86.8905 6.81529 87.3623 7.65108C87.8476 8.4734 88.0903 9.4103 88.0903 10.4618C88.0903 11.5133 87.8476 12.4569 87.3623 13.2927C86.8905 14.115 86.23 14.7621 85.3807 15.2339C84.5449 15.7057 83.5945 15.9416 82.5295 15.9416ZM82.5295 14.2431C83.217 14.2431 83.8304 14.0881 84.3696 13.778C84.9223 13.4545 85.3537 13.0096 85.6638 12.4434C85.9738 11.8638 86.1289 11.2032 86.1289 10.4618C86.1289 9.72035 85.9738 9.06654 85.6638 8.50036C85.3537 7.9207 84.9223 7.47584 84.3696 7.16578C83.8304 6.85573 83.217 6.7007 82.5295 6.7007C81.842 6.7007 81.2219 6.85573 80.6692 7.16578C80.13 7.47584 79.6986 7.9207 79.3751 8.50036C79.065 9.06654 78.91 9.72035 78.91 10.4618C78.91 11.2032 79.065 11.8638 79.3751 12.4434C79.6986 13.0096 80.13 13.4545 80.6692 13.778C81.2219 14.0881 81.842 14.2431 82.5295 14.2431ZM95.365 15.9416C94.3001 15.9416 93.343 15.7057 92.4937 15.2339C91.6444 14.7621 90.9771 14.115 90.4918 13.2927C90.02 12.4569 89.7841 11.5133 89.7841 10.4618C89.7841 9.4103 90.02 8.4734 90.4918 7.65108C90.9771 6.81529 91.6444 6.16822 92.4937 5.70988C93.343 5.23806 94.3001 5.00215 95.365 5.00215C96.43 5.00215 97.3804 5.23806 98.2162 5.70988C99.0655 6.16822 99.726 6.81529 100.198 7.65108C100.683 8.4734 100.926 9.4103 100.926 10.4618C100.926 11.5133 100.683 12.4569 100.198 13.2927C99.726 14.115 99.0655 14.7621 98.2162 15.2339C97.3804 15.7057 96.43 15.9416 95.365 15.9416ZM95.365 14.2431C96.0526 14.2431 96.6659 14.0881 97.2051 13.778C97.7579 13.4545 98.1892 13.0096 98.4993 12.4434C98.8093 11.8638 98.9644 11.2032 98.9644 10.4618C98.9644 9.72035 98.8093 9.06654 98.4993 8.50036C98.1892 7.9207 97.7579 7.47584 97.2051 7.16578C96.6659 6.85573 96.0526 6.7007 95.365 6.7007C94.6775 6.7007 94.0574 6.85573 93.5047 7.16578C92.9655 7.47584 92.5341 7.9207 92.2106 8.50036C91.9005 9.06654 91.7455 9.72035 91.7455 10.4618C91.7455 11.2032 91.9005 11.8638 92.2106 12.4434C92.5341 13.0096 92.9655 13.4545 93.5047 13.778C94.0574 14.0881 94.6775 14.2431 95.365 14.2431ZM113.721 0.816432V15.8203H111.861V14.1218C111.429 14.7149 110.883 15.1665 110.223 15.4766C109.562 15.7866 108.834 15.9416 108.039 15.9416C107.001 15.9416 106.071 15.7125 105.248 15.2541C104.426 14.7958 103.779 14.1555 103.307 13.3331C102.849 12.4974 102.62 11.5402 102.62 10.4618C102.62 9.38334 102.849 8.43296 103.307 7.61064C103.779 6.78833 104.426 6.148 105.248 5.68966C106.071 5.23132 107.001 5.00215 108.039 5.00215C108.807 5.00215 109.515 5.15044 110.162 5.44701C110.809 5.7301 111.348 6.15474 111.78 6.72092V0.816432H113.721ZM108.201 14.2431C108.875 14.2431 109.488 14.0881 110.041 13.778C110.593 13.4545 111.025 13.0096 111.335 12.4434C111.645 11.8638 111.8 11.2032 111.8 10.4618C111.8 9.72035 111.645 9.06654 111.335 8.50036C111.025 7.9207 110.593 7.47584 110.041 7.16578C109.488 6.85573 108.875 6.7007 108.201 6.7007C107.513 6.7007 106.893 6.85573 106.34 7.16578C105.801 7.47584 105.37 7.9207 105.046 8.50036C104.736 9.06654 104.581 9.72035 104.581 10.4618C104.581 11.2032 104.736 11.8638 105.046 12.4434C105.37 13.0096 105.801 13.4545 106.34 13.778C106.893 14.0881 107.513 14.2431 108.201 14.2431Z" fill="url(#paint0_linear_2384_412)"/>
<defs>
<linearGradient id="paint0_linear_2384_412" x1="55.2414" y1="-6.4717" x2="58.3791" y2="21.2967" gradientUnits="userSpaceOnUse">
<stop stop-color="#5AFF15"/>
<stop offset="0.594922" stop-color="#2BD913"/>
<stop offset="1" stop-color="#32CD32"/>
</linearGradient>
</defs>
</svg>
