<svg width="24" height="24" viewBox="0 0 24 24" fill="none" xmlns="http://www.w3.org/2000/svg">
<path d="M16.0219 12.4861C16.9599 11.7482 17.6445 10.7362 17.9805 9.59102C18.3166 8.44584 18.2873 7.2244 17.8969 6.09662C17.5064 4.96884 16.7741 3.99081 15.8019 3.29858C14.8297 2.60636 13.6659 2.23438 12.4725 2.23438C11.279 2.23437 10.1152 2.60636 9.14301 3.29858C8.17081 3.99081 7.43853 4.96884 7.04806 6.09662C6.6576 7.2244 6.62835 8.44584 6.9644 9.59102C7.30044 10.7362 7.98507 11.7482 8.92303 12.4861C7.31582 13.13 5.91347 14.198 4.86548 15.5762C3.81749 16.9545 3.16316 18.5912 2.97223 20.3121C2.95841 20.4377 2.96947 20.5649 3.00478 20.6862C3.0401 20.8076 3.09897 20.9208 3.17803 21.0194C3.33772 21.2186 3.56998 21.3461 3.82371 21.374C4.07745 21.402 4.33188 21.3279 4.53104 21.1682C4.7302 21.0086 4.85776 20.7763 4.88567 20.5226C5.09575 18.6524 5.98752 16.9251 7.39058 15.6708C8.79364 14.4166 10.6096 13.7232 12.4916 13.7232C14.3736 13.7232 16.1896 14.4166 17.5926 15.6708C18.9957 16.9251 19.8874 18.6524 20.0975 20.5226C20.1235 20.7576 20.2357 20.9748 20.4124 21.132C20.5891 21.2893 20.8177 21.3755 21.0542 21.374H21.1595C21.4103 21.3452 21.6395 21.2184 21.7972 21.0213C21.9549 20.8241 22.0283 20.5727 22.0014 20.3216C21.8096 18.5959 21.1517 16.9549 20.0983 15.5746C19.045 14.1943 17.6358 13.1266 16.0219 12.4861V12.4861ZM12.4725 11.8068C11.7156 11.8068 10.9757 11.5824 10.3464 11.1619C9.71704 10.7414 9.22654 10.1437 8.93689 9.44444C8.64724 8.74517 8.57146 7.97571 8.71912 7.23337C8.86678 6.49103 9.23125 5.80914 9.76645 5.27394C10.3017 4.73874 10.9835 4.37427 11.7259 4.22661C12.4682 4.07895 13.2377 4.15473 13.937 4.44438C14.6362 4.73403 15.2339 5.22453 15.6544 5.85385C16.0749 6.48318 16.2993 7.22307 16.2993 7.97996C16.2993 8.99491 15.8962 9.96829 15.1785 10.686C14.4608 11.4037 13.4874 11.8068 12.4725 11.8068Z" fill="#32CD32"/>
</svg>
