<svg width="21" height="21" viewBox="0 0 21 21" fill="none" xmlns="http://www.w3.org/2000/svg">
<path d="M12.9269 13.6893L14.3423 12.2738C14.533 12.0856 14.7742 11.9567 15.0367 11.9028C15.2991 11.849 15.5716 11.8725 15.821 11.9705L17.5461 12.6593C17.7981 12.7616 18.0142 12.9362 18.1671 13.1611C18.32 13.386 18.403 13.6511 18.4055 13.9231V17.0826C18.404 17.2676 18.3651 17.4504 18.2911 17.62C18.2171 17.7896 18.1096 17.9424 17.975 18.0694C17.8404 18.1963 17.6815 18.2947 17.5079 18.3586C17.3343 18.4225 17.1495 18.4506 16.9647 18.4412C4.87643 17.6892 2.43729 7.45242 1.97601 3.53463C1.95459 3.34224 1.97416 3.14749 2.03341 2.96321C2.09267 2.77892 2.19027 2.60927 2.3198 2.46541C2.44933 2.32155 2.60786 2.20675 2.78494 2.12856C2.96202 2.05037 3.15366 2.01056 3.34723 2.01174H6.39932C6.67167 2.01255 6.93756 2.09482 7.16278 2.24797C7.388 2.40112 7.56225 2.61814 7.66312 2.87113L8.35189 4.59622C8.45316 4.8446 8.47899 5.11732 8.42617 5.3803C8.37335 5.64327 8.24422 5.88486 8.0549 6.07487L6.63944 7.49033C6.63944 7.49033 7.45459 13.0068 12.9269 13.6893Z" fill="#32CD32"/>
</svg>
