<svg width="19" height="19" viewBox="0 0 19 19" fill="none" xmlns="http://www.w3.org/2000/svg">
<path d="M14.9418 7.89016C14.9418 6.5476 14.4085 5.26003 13.4591 4.3107C12.5098 3.36137 11.2222 2.82804 9.87966 2.82804C8.53711 2.82804 7.24954 3.36137 6.3002 4.3107C5.35087 5.26003 4.81754 6.5476 4.81754 7.89016C4.81754 9.96676 6.47904 12.6733 9.87966 15.9153C13.2803 12.6733 14.9418 9.96676 14.9418 7.89016ZM9.87966 17.4519C5.7546 13.7026 3.69263 10.5146 3.69263 7.89016C3.69263 6.24926 4.34447 4.67556 5.50477 3.51527C6.66506 2.35497 8.23876 1.70313 9.87966 1.70312C11.5206 1.70313 13.0943 2.35497 14.2546 3.51527C15.4149 4.67556 16.0667 6.24926 16.0667 7.89016C16.0667 10.5146 14.0047 13.7026 9.87966 17.4519Z" fill="#32CD32"/>
<path d="M9.88541 9.59732C10.3329 9.59732 10.7621 9.41954 11.0786 9.1031C11.395 8.78666 11.5728 8.35747 11.5728 7.90995C11.5728 7.46243 11.395 7.03324 11.0786 6.71679C10.7621 6.40035 10.3329 6.22257 9.88541 6.22257C9.43789 6.22257 9.0087 6.40035 8.69226 6.71679C8.37581 7.03324 8.19804 7.46243 8.19804 7.90995C8.19804 8.35747 8.37581 8.78666 8.69226 9.1031C9.0087 9.41954 9.43789 9.59732 9.88541 9.59732ZM9.88541 10.7222C9.13954 10.7222 8.42423 10.4259 7.89682 9.89854C7.36941 9.37113 7.07312 8.65581 7.07312 7.90995C7.07312 7.16408 7.36941 6.44876 7.89682 5.92136C8.42423 5.39395 9.13954 5.09766 9.88541 5.09766C10.6313 5.09766 11.3466 5.39395 11.874 5.92136C12.4014 6.44876 12.6977 7.16408 12.6977 7.90995C12.6977 8.65581 12.4014 9.37113 11.874 9.89854C11.3466 10.4259 10.6313 10.7222 9.88541 10.7222Z" fill="#32CD32"/>
</svg>
