<svg width="27" height="27" viewBox="0 0 27 27" fill="none" xmlns="http://www.w3.org/2000/svg">
<path d="M2.81427 5.00755C2.81427 4.79006 2.90067 4.58147 3.05446 4.42769C3.20824 4.2739 3.41683 4.1875 3.63432 4.1875H4.24443C5.28316 4.1875 5.90639 4.88618 6.26174 5.53566C6.49901 5.96864 6.67067 6.47051 6.80516 6.92536C6.84154 6.92249 6.87801 6.92103 6.9145 6.92099H20.5798C21.4873 6.92099 22.1433 7.78914 21.894 8.66276L19.8953 15.6703C19.7161 16.2989 19.337 16.8519 18.8153 17.2457C18.2937 17.6395 17.6579 17.8526 17.0043 17.8527H10.5008C9.84206 17.8528 9.2015 17.6364 8.67763 17.237C8.15375 16.8376 7.77555 16.2772 7.60115 15.6419L6.77017 12.611L5.3925 7.96627L5.3914 7.95752C5.22083 7.33757 5.0612 6.75698 4.82284 6.32399C4.59432 5.90304 4.41063 5.82759 4.24552 5.82759H3.63432C3.41683 5.82759 3.20824 5.74119 3.05446 5.58741C2.90067 5.43362 2.81427 5.22504 2.81427 5.00755ZM8.36106 12.213L9.1822 15.2078C9.34621 15.8004 9.88526 16.2127 10.5008 16.2127H17.0043C17.3014 16.2126 17.5904 16.1158 17.8276 15.9369C18.0647 15.758 18.2371 15.5066 18.3186 15.2209L20.2178 8.56108H7.28079L8.34576 12.1551L8.36106 12.213ZM12.1081 21.1351C12.1081 21.7151 11.8777 22.2713 11.4676 22.6814C11.0575 23.0915 10.5013 23.3219 9.92134 23.3219C9.34136 23.3219 8.78515 23.0915 8.37504 22.6814C7.96494 22.2713 7.73455 21.7151 7.73455 21.1351C7.73455 20.5551 7.96494 19.9989 8.37504 19.5888C8.78515 19.1787 9.34136 18.9483 9.92134 18.9483C10.5013 18.9483 11.0575 19.1787 11.4676 19.5888C11.8777 19.9989 12.1081 20.5551 12.1081 21.1351V21.1351ZM10.468 21.1351C10.468 20.9901 10.4104 20.8511 10.3079 20.7485C10.2054 20.646 10.0663 20.5884 9.92134 20.5884C9.77634 20.5884 9.63729 20.646 9.53476 20.7485C9.43224 20.8511 9.37464 20.9901 9.37464 21.1351C9.37464 21.2801 9.43224 21.4192 9.53476 21.5217C9.63729 21.6242 9.77634 21.6818 9.92134 21.6818C10.0663 21.6818 10.2054 21.6242 10.3079 21.5217C10.4104 21.4192 10.468 21.2801 10.468 21.1351ZM19.7619 21.1351C19.7619 21.7151 19.5315 22.2713 19.1214 22.6814C18.7113 23.0915 18.1551 23.3219 17.5751 23.3219C16.9951 23.3219 16.4389 23.0915 16.0288 22.6814C15.6187 22.2713 15.3883 21.7151 15.3883 21.1351C15.3883 20.5551 15.6187 19.9989 16.0288 19.5888C16.4389 19.1787 16.9951 18.9483 17.5751 18.9483C18.1551 18.9483 18.7113 19.1787 19.1214 19.5888C19.5315 19.9989 19.7619 20.5551 19.7619 21.1351V21.1351ZM18.1218 21.1351C18.1218 20.9901 18.0642 20.8511 17.9617 20.7485C17.8592 20.646 17.7201 20.5884 17.5751 20.5884C17.4301 20.5884 17.2911 20.646 17.1885 20.7485C17.086 20.8511 17.0284 20.9901 17.0284 21.1351C17.0284 21.2801 17.086 21.4192 17.1885 21.5217C17.2911 21.6242 17.4301 21.6818 17.5751 21.6818C17.7201 21.6818 17.8592 21.6242 17.9617 21.5217C18.0642 21.4192 18.1218 21.2801 18.1218 21.1351Z" fill="#32CD32"/>
</svg>
