<svg width="8" height="12" viewBox="0 0 8 12" fill="none" xmlns="http://www.w3.org/2000/svg">
<path d="M0.670011 0.541105C0.508629 0.702536 0.417969 0.921455 0.417969 1.14972C0.417969 1.37798 0.508629 1.5969 0.670011 1.75833L4.93117 6.01949L0.670011 10.2806C0.513202 10.443 0.426434 10.6605 0.428395 10.8862C0.430357 11.1119 0.520891 11.3278 0.680497 11.4874C0.840104 11.647 1.05601 11.7375 1.28172 11.7395C1.50743 11.7415 1.72488 11.6547 1.88724 11.4979L6.75701 6.6281C6.91839 6.46667 7.00905 6.24775 7.00905 6.01949C7.00905 5.79123 6.91839 5.57231 6.75701 5.41088L1.88724 0.541105C1.72581 0.379722 1.50689 0.289062 1.27862 0.289062C1.05036 0.289062 0.831442 0.379722 0.670011 0.541105Z" fill="#32CD32"/>
</svg>
