<svg width="16" height="19" viewBox="0 0 16 19" fill="none" xmlns="http://www.w3.org/2000/svg">
<path d="M13.6995 7.50114C13.6995 5.90903 13.0671 4.38213 11.9413 3.25633C10.8155 2.13054 9.28857 1.49808 7.69646 1.49808C6.10435 1.49808 4.57744 2.13054 3.45165 3.25633C2.32585 4.38213 1.69339 5.90903 1.69339 7.50114C1.69339 9.96373 3.66373 13.1734 7.69646 17.018C11.7292 13.1734 13.6995 9.96373 13.6995 7.50114ZM7.69646 18.8403C2.80463 14.394 0.359375 10.6134 0.359375 7.50114C0.359375 5.55523 1.13239 3.68901 2.50836 2.31304C3.88433 0.937074 5.75054 0.164063 7.69646 0.164062C9.64238 0.164063 11.5086 0.937074 12.8846 2.31304C14.2605 3.68901 15.0335 5.55523 15.0335 7.50114C15.0335 10.6134 12.5883 14.394 7.69646 18.8403Z" fill="#32CD32"/>
</svg>
