<svg width="54" height="55" viewBox="0 0 54 55" fill="none" xmlns="http://www.w3.org/2000/svg">
<path d="M42.769 12.8025C42.3631 6.07304 36.3726 0.726562 29.0222 0.726562C24.6519 0.726562 20.764 2.62035 18.2377 5.56584C17.0137 5.23032 15.7504 5.05975 14.4813 5.05864C7.13085 5.05864 1.17235 10.5917 1.17235 17.4144C1.17235 19.8652 1.95047 22.1436 3.27577 24.0649C1.49568 26.2518 0.426208 28.9663 0.426208 31.9189C0.426208 39.1272 6.71958 44.9693 14.4821 44.9693C17.8549 44.9693 20.931 43.8466 23.3506 42.0061C23.4092 42.3925 23.4634 42.7878 23.5229 43.1715C24.1003 46.9413 24.6057 50.5628 24.3455 54.0226L30.5633 53.9559C30.3102 50.0929 29.3242 46.4785 28.3276 43.0596C30.0106 43.8952 31.8643 44.3297 33.7433 44.3289C40.0385 44.3289 45.1487 39.6611 45.3041 33.8509C50.1603 32.5745 53.7222 28.4369 53.7222 23.5204C53.7222 17.7786 48.8705 13.1037 42.769 12.8025ZM44.6264 31.2741L42.6935 31.7821L42.6393 33.7799C42.5229 38.1279 38.532 41.6641 33.7424 41.6641C31.2171 41.6641 28.8321 40.6826 27.1355 38.9735C26.4489 36.5663 25.8306 34.1805 25.4371 31.7662C26.8584 31.6978 28.2423 31.5245 29.6306 31.2687C31.5644 30.9054 33.4626 30.3609 35.2596 29.5846C37.0539 28.8118 38.7443 27.8009 40.1966 26.5352C41.6371 25.2873 42.829 23.7787 43.7097 22.0885C42.7133 23.6869 41.4251 25.0836 39.9123 26.2056C38.4067 27.3284 36.7048 28.1749 34.9291 28.7869C33.1517 29.4007 31.297 29.7862 29.4272 29.995C28.0246 30.1527 26.6126 30.2106 25.2017 30.1682C24.8074 26.902 24.882 23.5834 25.5908 20.3191C26.3743 16.6718 27.903 13.1339 29.9096 9.84995C27.4775 12.8514 25.4318 16.217 24.0932 19.9149C23.316 22.0459 22.8079 24.2798 22.5236 26.5476C21.8701 26.1847 21.2323 25.7941 20.6121 25.3769C19.47 24.6122 18.4018 23.7427 17.4214 22.7796C15.4779 20.8636 13.9323 18.4573 13.4677 15.7161C13.6312 18.4892 14.9423 21.1505 16.7534 23.3472C17.6688 24.4551 18.6861 25.4746 19.7922 26.3921C20.6094 27.0717 21.4444 27.7023 22.3504 28.2868C22.2695 29.3756 22.2387 30.4676 22.258 31.5592C22.2838 33.3784 22.4348 35.1824 22.6426 36.9678C21.9828 36.9231 21.3254 36.8478 20.6725 36.7422C19.3099 36.5255 17.9754 36.1594 16.693 35.6505C14.1304 34.6379 11.8173 32.9262 10.2176 30.6381C11.558 33.0719 13.736 35.0936 16.3093 36.4251C17.6042 37.0983 18.9694 37.6265 20.3802 38C21.1921 38.2123 22.004 38.3846 22.8354 38.509C22.8532 38.6369 22.8736 38.7604 22.8914 38.8883C20.7275 41.0583 17.6808 42.3054 14.4839 42.3054C8.20121 42.3054 3.09101 37.6456 3.09101 31.9189C3.09101 29.6903 3.86913 27.5567 5.34276 25.7481L6.60499 24.1981L5.46979 22.5522C4.40209 21.0039 3.83804 19.2274 3.83804 17.4144C3.83804 12.0706 8.61336 7.72344 14.4821 7.72344C15.5036 7.72344 16.5314 7.8629 17.5369 8.13648L19.1642 8.58062L20.2612 7.30062C22.3913 4.81614 25.5846 3.39136 29.0222 3.39136C34.9149 3.39136 39.7844 7.59553 40.1086 12.9624L40.2516 15.3457L42.6375 15.4638C47.3587 15.6974 51.0574 19.2354 51.0574 23.5204C51.0574 27.0903 48.4122 30.2783 44.6264 31.2741Z" fill="#32CD32"/>
</svg>
