<svg width="110" height="104" viewBox="0 0 110 104" fill="none" xmlns="http://www.w3.org/2000/svg">
<path d="M7.36617 35.8064V35.7349C7.36607 28.6789 9.45579 21.781 13.3717 15.9114C17.2876 10.0417 22.8542 5.4634 29.3692 2.75396C35.8843 0.0445281 43.0558 -0.674605 49.9791 0.687292C56.9024 2.04919 63.2672 5.4311 68.2706 10.4063C72.2073 8.46334 76.6044 7.6464 80.9763 8.04579C85.3481 8.44518 89.5244 10.0454 93.0439 12.6695C96.5633 15.2937 99.2888 18.8397 100.919 22.9157C102.55 26.9918 103.022 31.4392 102.283 35.7667C103.369 35.8675 104.423 36.1911 105.378 36.7172C106.334 37.2434 107.17 37.9609 107.836 38.8249C108.502 39.6888 108.983 40.6808 109.248 41.7388C109.514 42.7968 109.558 43.8982 109.379 44.9742C105.791 66.5562 96.9171 80.2167 82.7724 85.9634V91.2974C82.7724 94.4552 81.518 97.4836 79.2852 99.7164C77.0523 101.949 74.0239 103.204 70.8662 103.204H39.1162C35.9584 103.204 32.93 101.949 30.6972 99.7164C28.4643 97.4836 27.2099 94.4552 27.2099 91.2974V85.9634C13.0653 80.2167 4.19117 66.5562 0.60342 44.9742C0.430269 43.9268 0.468986 42.8553 0.71728 41.8231C0.965573 40.7909 1.4184 39.8191 2.04895 38.965C2.67951 38.1109 3.47499 37.392 4.3883 36.8508C5.30162 36.3097 6.31422 35.9572 7.36617 35.8143V35.8064ZM15.3037 35.7349H23.2412C23.2412 30.472 25.3318 25.4247 29.0533 21.7033C32.7747 17.9818 37.822 15.8912 43.0849 15.8912C48.3478 15.8912 53.3951 17.9818 57.1166 21.7033C60.838 25.4247 62.9287 30.472 62.9287 35.7349H70.8662C70.8662 28.3669 67.9392 21.3006 62.7292 16.0906C57.5192 10.8806 50.453 7.95365 43.0849 7.95365C35.7169 7.95365 28.6506 10.8806 23.4406 16.0906C18.2306 21.3006 15.3037 28.3669 15.3037 35.7349ZM31.1787 35.7349H54.9912C54.9912 32.5772 53.7368 29.5488 51.5039 27.3159C49.2711 25.0831 46.2427 23.8287 43.0849 23.8287C39.9272 23.8287 36.8988 25.0831 34.6659 27.3159C32.4331 29.5488 31.1787 32.5772 31.1787 35.7349ZM85.6776 35.7349H94.1786C94.7779 33.3892 94.8337 30.9376 94.342 28.567C93.8502 26.1963 92.8238 23.9693 91.3409 22.0554C89.8581 20.1416 87.9579 18.5915 85.7853 17.5232C83.6126 16.455 81.2248 15.8968 78.8037 15.8912C76.8987 15.8912 75.0889 16.2245 73.4062 16.8357C74.8111 19.09 75.97 21.5188 76.859 24.0668C78.3708 23.6918 79.9594 23.769 81.4278 24.2888C82.8961 24.8086 84.1795 25.7481 85.1187 26.9908C86.0578 28.2334 86.6114 29.7245 86.7108 31.279C86.8101 32.8334 86.4509 34.3828 85.6776 35.7349ZM74.8349 87.3287H35.1474V91.2974C35.1474 92.35 35.5656 93.3595 36.3098 94.1038C37.0541 94.8481 38.0636 95.2662 39.1162 95.2662H70.8662C71.9188 95.2662 72.9282 94.8481 73.6725 94.1038C74.4168 93.3595 74.8349 92.35 74.8349 91.2974V87.3287ZM32.3534 79.3912H77.6289C90.2178 75.3431 98.187 63.8972 101.553 43.6724H8.4298C11.7953 63.8972 19.7645 75.3431 32.3534 79.3912Z" fill="#32CD32"/>
</svg>
